<svg version="1" xmlns="http://www.w3.org/2000/svg" width="133.333" height="133.333" viewBox="0 0 100.000000 100.000000"><path d="M0 50v50h100V0H0v50zm23.4-25.9l15.4 23.1 2.8-3.7c1.6-2 5.4-6.9 8.5-10.8C66.4 11.7 75.2.9 75.6 1.3c.6.6-35.3 47-36.7 47.5C38.1 49.1 7 3 7 1.6 7-.2 9.3 3 23.4 24.1zM38 80.9c0 6.9-.4 12.2-1 12.6-.6.4-1-3.8-1-11.9 0-7.7.4-12.6 1-12.6s1 4.6 1 11.9zM66 70c0 .5-2.5 1-5.5 1H55v11c0 6.7-.4 11-1 11s-1-4.3-1-11V71h-4.9c-2.8 0-5.3-.5-5.6-1-.4-.6 3.7-1 11.4-1 7.4 0 12.1.4 12.1 1zm11.7 5.4l5.9 6.4 4.4-6.4c4-5.6 6-7.6 6-5.8 0 1.1-16.3 22.5-16.8 22-.3-.3.8-2.4 2.3-4.6l2.8-4.1-3.4-3.7C71.1 70.7 69.7 69 70.7 69c.6 0 3.8 2.9 7 6.4zM28.5 71c.4.6-2.8 1-8.9 1H10v19h9.1c5.7 0 8.8.4 8.4 1-.9 1.4-16.8 1.3-18.3-.2-1.3-1.3-1.7-19.9-.5-21.1 1-1.1 19.1-.8 19.8.3z"/></svg>